<svg width="336" height="161" viewBox="0 0 336 161" fill="none" xmlns="http://www.w3.org/2000/svg">
<rect x="135.5" y="2.5" width="66" height="66" rx="7.5" fill="#18181B" stroke="#E9FF70" stroke-width="5"/>
<path d="M174.718 56.5593V57.5593H175.718H179.932H180.932V56.5593V16.8163V15.3933L179.593 15.8754L162.282 22.1094V13.839V12.839H161.282H157.068H156.068V13.839V52.6127V54.0357L157.407 53.5536L174.718 47.3195V56.5593ZM174.718 39.7961L162.282 44.3292V29.6361L174.718 25.1626V39.7961Z" fill="white" stroke="white" stroke-width="2"/>
<path d="M21.505 139.68C17.595 139.68 13.8267 139.227 10.2 138.32C6.63 137.357 3.79667 136.167 1.7 134.75L6.12 125.23C8.21667 126.533 10.6817 127.61 13.515 128.46C16.405 129.253 19.2383 129.65 22.015 129.65C25.075 129.65 27.2283 129.282 28.475 128.545C29.7783 127.808 30.43 126.788 30.43 125.485C30.43 124.408 29.92 123.615 28.9 123.105C27.9367 122.538 26.6333 122.113 24.99 121.83C23.3467 121.547 21.5333 121.263 19.55 120.98C17.6233 120.697 15.6683 120.328 13.685 119.875C11.7017 119.365 9.88833 118.628 8.245 117.665C6.60167 116.702 5.27 115.398 4.25 113.755C3.28667 112.112 2.805 109.987 2.805 107.38C2.805 104.49 3.62667 101.94 5.27 99.73C6.97 97.52 9.40667 95.7917 12.58 94.545C15.7533 93.2417 19.55 92.59 23.97 92.59C27.0867 92.59 30.26 92.93 33.49 93.61C36.72 94.29 39.4117 95.2817 41.565 96.585L37.145 106.02C34.935 104.717 32.6967 103.838 30.43 103.385C28.22 102.875 26.0667 102.62 23.97 102.62C21.0233 102.62 18.87 103.017 17.51 103.81C16.15 104.603 15.47 105.623 15.47 106.87C15.47 108.003 15.9517 108.853 16.915 109.42C17.935 109.987 19.2667 110.44 20.91 110.78C22.5533 111.12 24.3383 111.432 26.265 111.715C28.2483 111.942 30.2317 112.31 32.215 112.82C34.1983 113.33 35.9833 114.067 37.57 115.03C39.2133 115.937 40.545 117.212 41.565 118.855C42.585 120.442 43.095 122.538 43.095 125.145C43.095 127.978 42.245 130.5 40.545 132.71C38.845 134.863 36.38 136.563 33.15 137.81C29.9767 139.057 26.095 139.68 21.505 139.68ZM73.0363 139.68C68.1629 139.68 63.8279 138.66 60.0313 136.62C56.2913 134.58 53.3163 131.803 51.1063 128.29C48.9529 124.72 47.8763 120.668 47.8763 116.135C47.8763 111.545 48.9529 107.493 51.1063 103.98C53.3163 100.41 56.2913 97.6333 60.0313 95.65C63.8279 93.61 68.1629 92.59 73.0363 92.59C77.8529 92.59 82.1596 93.61 85.9563 95.65C89.7529 97.6333 92.7279 100.382 94.8813 103.895C97.0346 107.408 98.1113 111.488 98.1113 116.135C98.1113 120.668 97.0346 124.72 94.8813 128.29C92.7279 131.803 89.7529 134.58 85.9563 136.62C82.1596 138.66 77.8529 139.68 73.0363 139.68ZM73.0363 128.8C75.2463 128.8 77.2296 128.29 78.9863 127.27C80.7429 126.25 82.1313 124.805 83.1513 122.935C84.1713 121.008 84.6813 118.742 84.6813 116.135C84.6813 113.472 84.1713 111.205 83.1513 109.335C82.1313 107.465 80.7429 106.02 78.9863 105C77.2296 103.98 75.2463 103.47 73.0363 103.47C70.8263 103.47 68.8429 103.98 67.0863 105C65.3296 106.02 63.9129 107.465 62.8363 109.335C61.8163 111.205 61.3063 113.472 61.3063 116.135C61.3063 118.742 61.8163 121.008 62.8363 122.935C63.9129 124.805 65.3296 126.25 67.0863 127.27C68.8429 128.29 70.8263 128.8 73.0363 128.8ZM126.269 139.68C122.473 139.68 119.073 138.943 116.069 137.47C113.123 135.997 110.828 133.758 109.184 130.755C107.541 127.695 106.719 123.813 106.719 119.11V93.27H119.979V117.155C119.979 120.952 120.773 123.757 122.359 125.57C124.003 127.327 126.298 128.205 129.244 128.205C131.284 128.205 133.098 127.78 134.684 126.93C136.271 126.023 137.518 124.663 138.424 122.85C139.331 120.98 139.784 118.657 139.784 115.88V93.27H153.044V139H140.464V126.42L142.759 130.075C141.229 133.248 138.963 135.657 135.959 137.3C133.013 138.887 129.783 139.68 126.269 139.68ZM193.124 92.59C196.751 92.59 199.981 93.3267 202.814 94.8C205.704 96.2167 207.971 98.4267 209.614 101.43C211.257 104.377 212.079 108.173 212.079 112.82V139H198.819V114.86C198.819 111.177 197.997 108.457 196.354 106.7C194.767 104.943 192.501 104.065 189.554 104.065C187.457 104.065 185.559 104.518 183.859 105.425C182.216 106.275 180.912 107.607 179.949 109.42C179.042 111.233 178.589 113.557 178.589 116.39V139H165.329V93.27H177.994V105.935L175.614 102.11C177.257 99.05 179.609 96.6983 182.669 95.055C185.729 93.4117 189.214 92.59 193.124 92.59ZM244.066 139.68C239.759 139.68 235.877 138.717 232.421 136.79C228.964 134.807 226.216 132.058 224.176 128.545C222.192 125.032 221.201 120.895 221.201 116.135C221.201 111.318 222.192 107.153 224.176 103.64C226.216 100.127 228.964 97.4067 232.421 95.48C235.877 93.5533 239.759 92.59 244.066 92.59C247.919 92.59 251.291 93.44 254.181 95.14C257.071 96.84 259.309 99.4183 260.896 102.875C262.482 106.332 263.276 110.752 263.276 116.135C263.276 121.462 262.511 125.882 260.981 129.395C259.451 132.852 257.241 135.43 254.351 137.13C251.517 138.83 248.089 139.68 244.066 139.68ZM246.361 128.8C248.514 128.8 250.469 128.29 252.226 127.27C253.982 126.25 255.371 124.805 256.391 122.935C257.467 121.008 258.006 118.742 258.006 116.135C258.006 113.472 257.467 111.205 256.391 109.335C255.371 107.465 253.982 106.02 252.226 105C250.469 103.98 248.514 103.47 246.361 103.47C244.151 103.47 242.167 103.98 240.411 105C238.654 106.02 237.237 107.465 236.161 109.335C235.141 111.205 234.631 113.472 234.631 116.135C234.631 118.742 235.141 121.008 236.161 122.935C237.237 124.805 238.654 126.25 240.411 127.27C242.167 128.29 244.151 128.8 246.361 128.8ZM258.346 139V129.65L258.601 116.05L257.751 102.535V75.93H271.011V139H258.346ZM302.748 139.68C298.441 139.68 294.56 138.717 291.103 136.79C287.646 134.863 284.898 132.143 282.858 128.63C280.875 125.117 279.883 120.952 279.883 116.135C279.883 111.375 280.875 107.238 282.858 103.725C284.898 100.212 287.646 97.4917 291.103 95.565C294.56 93.5817 298.441 92.59 302.748 92.59C306.771 92.59 310.2 93.44 313.033 95.14C315.923 96.84 318.133 99.4183 319.663 102.875C321.193 106.332 321.958 110.752 321.958 116.135C321.958 121.462 321.165 125.882 319.578 129.395C317.991 132.852 315.753 135.43 312.863 137.13C309.973 138.83 306.601 139.68 302.748 139.68ZM305.043 128.8C307.196 128.8 309.151 128.29 310.908 127.27C312.665 126.25 314.053 124.805 315.073 122.935C316.15 121.008 316.688 118.742 316.688 116.135C316.688 113.472 316.15 111.205 315.073 109.335C314.053 107.465 312.665 106.02 310.908 105C309.151 103.98 307.196 103.47 305.043 103.47C302.833 103.47 300.85 103.98 299.093 105C297.336 106.02 295.92 107.465 294.843 109.335C293.823 111.205 293.313 113.472 293.313 116.135C293.313 118.742 293.823 121.008 294.843 122.935C295.92 124.805 297.336 126.25 299.093 127.27C300.85 128.29 302.833 128.8 305.043 128.8ZM316.433 155.49V129.735L317.283 116.22L317.028 102.62V93.27H329.693V155.49H316.433Z" fill="#18181B"/>
<path d="M10.2 138.32L9.93948 139.285L9.94845 139.288L9.95746 139.29L10.2 138.32ZM1.7 134.75L0.792991 134.329L0.434224 135.102L1.14014 135.579L1.7 134.75ZM6.12 125.23L6.64793 124.381L5.68865 123.784L5.21299 124.809L6.12 125.23ZM13.515 128.46L13.2277 129.418L13.2389 129.421L13.2503 129.424L13.515 128.46ZM28.475 128.545L27.9829 127.674L27.9746 127.679L27.9663 127.684L28.475 128.545ZM28.9 123.105L28.393 123.967L28.4223 123.984L28.4528 123.999L28.9 123.105ZM24.99 121.83L24.8201 122.815L24.8201 122.815L24.99 121.83ZM19.55 120.98L19.4045 121.969L19.4086 121.97L19.55 120.98ZM13.685 119.875L13.436 120.843L13.449 120.847L13.4622 120.85L13.685 119.875ZM8.245 117.665L8.75072 116.802L8.75072 116.802L8.245 117.665ZM4.25 113.755L3.3873 114.261L3.39369 114.272L3.40036 114.282L4.25 113.755ZM5.27 99.73L4.47738 99.1203L4.4724 99.1268L4.46754 99.1333L5.27 99.73ZM12.58 94.545L12.9457 95.4758L12.9528 95.4729L12.9599 95.47L12.58 94.545ZM33.49 93.61L33.696 92.6314L33.696 92.6314L33.49 93.61ZM41.565 96.585L42.4706 97.0092L42.852 96.195L42.0828 95.7295L41.565 96.585ZM37.145 106.02L36.637 106.881L37.5841 107.44L38.0506 106.444L37.145 106.02ZM30.43 103.385L30.2051 104.359L30.2195 104.363L30.2339 104.366L30.43 103.385ZM17.51 103.81L17.0061 102.946L17.0061 102.946L17.51 103.81ZM16.915 109.42L16.408 110.282L16.4186 110.288L16.4294 110.294L16.915 109.42ZM26.265 111.715L26.1195 112.704L26.1354 112.707L26.1515 112.709L26.265 111.715ZM32.215 112.82L32.464 111.852L32.464 111.852L32.215 112.82ZM37.57 115.03L37.051 115.885L37.0688 115.896L37.0869 115.906L37.57 115.03ZM41.565 118.855L40.7154 119.382L40.7195 119.389L40.7238 119.396L41.565 118.855ZM40.545 132.71L41.3299 133.33L41.3376 133.32L40.545 132.71ZM33.15 137.81L32.7899 136.877L32.7843 136.879L33.15 137.81ZM21.505 138.68C17.673 138.68 13.9863 138.236 10.4425 137.35L9.95746 139.29C13.667 140.218 17.517 140.68 21.505 140.68V138.68ZM10.4605 137.355C6.95256 136.408 4.23326 135.255 2.25986 133.921L1.14014 135.579C3.36007 137.079 6.30744 138.305 9.93948 139.285L10.4605 137.355ZM2.60701 135.171L7.02701 125.651L5.21299 124.809L0.792991 134.329L2.60701 135.171ZM5.59207 126.079C7.77688 127.437 10.3258 128.547 13.2277 129.418L13.8023 127.502C11.0375 126.673 8.65646 125.629 6.64793 124.381L5.59207 126.079ZM13.2503 129.424C16.2197 130.239 19.1421 130.65 22.015 130.65V128.65C19.3346 128.65 16.5903 128.267 13.7797 127.496L13.2503 129.424ZM22.015 130.65C25.0955 130.65 27.4879 130.29 28.9837 129.406L27.9663 127.684C26.9688 128.273 25.0545 128.65 22.015 128.65V130.65ZM28.9671 129.416C30.5282 128.533 31.43 127.209 31.43 125.485H29.43C29.43 126.368 29.0285 127.083 27.9829 127.674L28.9671 129.416ZM31.43 125.485C31.43 124.783 31.2615 124.122 30.8887 123.542C30.518 122.965 29.9843 122.529 29.3472 122.211L28.4528 123.999C28.8357 124.191 29.067 124.407 29.2063 124.623C29.3435 124.837 29.43 125.111 29.43 125.485H31.43ZM29.407 122.243C28.3018 121.593 26.8693 121.139 25.1599 120.845L24.8201 122.815C26.3974 123.087 27.5716 123.484 28.393 123.967L29.407 122.243ZM25.1599 120.845C23.5054 120.559 21.6825 120.274 19.6914 119.99L19.4086 121.97C21.3842 122.252 23.1879 122.534 24.8201 122.815L25.1599 120.845ZM19.6955 119.991C17.7959 119.711 15.8667 119.348 13.9078 118.9L13.4622 120.85C15.47 121.309 17.4508 121.682 19.4045 121.969L19.6955 119.991ZM13.934 118.907C12.034 118.418 10.308 117.715 8.75072 116.802L7.73928 118.528C9.46862 119.541 11.3693 120.312 13.436 120.843L13.934 118.907ZM8.75072 116.802C7.2498 115.922 6.03532 114.735 5.09964 113.228L3.40036 114.282C4.50468 116.062 5.95354 117.481 7.73928 118.528L8.75072 116.802ZM5.1127 113.249C4.26646 111.806 3.805 109.872 3.805 107.38H1.805C1.805 110.102 2.30687 112.418 3.3873 114.261L5.1127 113.249ZM3.805 107.38C3.805 104.694 4.564 102.355 6.07246 100.327L4.46754 99.1333C2.68933 101.525 1.805 104.286 1.805 107.38H3.805ZM6.06262 100.34C7.62979 98.3024 9.90357 96.6709 12.9457 95.4758L12.2143 93.6142C8.90977 94.9125 6.31021 96.7376 4.47738 99.1203L6.06262 100.34ZM12.9599 95.47C15.9834 94.2282 19.6444 93.59 23.97 93.59V91.59C19.4556 91.59 15.5233 92.2551 12.2001 93.62L12.9599 95.47ZM23.97 93.59C27.0135 93.59 30.1178 93.922 33.284 94.5885L33.696 92.6314C30.4022 91.938 27.1598 91.59 23.97 91.59V93.59ZM33.284 94.5885C36.4362 95.2522 39.0148 96.2104 41.0472 97.4405L42.0828 95.7295C39.8085 94.3529 37.0038 93.3278 33.696 92.6314L33.284 94.5885ZM40.6594 96.1608L36.2394 105.596L38.0506 106.444L42.4706 97.0092L40.6594 96.1608ZM37.653 105.159C35.357 103.805 33.0141 102.882 30.6261 102.404L30.2339 104.366C32.3793 104.795 34.513 105.629 36.637 106.881L37.653 105.159ZM30.6549 102.411C28.3771 101.885 26.1482 101.62 23.97 101.62V103.62C25.9851 103.62 28.0629 103.865 30.2051 104.359L30.6549 102.411ZM23.97 101.62C20.9763 101.62 18.6018 102.015 17.0061 102.946L18.0139 104.674C19.1382 104.018 21.0703 103.62 23.97 103.62V101.62ZM17.0061 102.946C15.4325 103.864 14.47 105.171 14.47 106.87H16.47C16.47 106.075 16.8675 105.342 18.0139 104.674L17.0061 102.946ZM14.47 106.87C14.47 108.352 15.1339 109.533 16.408 110.282L17.422 108.558C16.7694 108.174 16.47 107.655 16.47 106.87H14.47ZM16.4294 110.294C17.5673 110.926 19.0044 111.407 20.7074 111.759L21.1126 109.801C19.5289 109.473 18.3027 109.047 17.4006 108.546L16.4294 110.294ZM20.7074 111.759C22.3724 112.104 24.1767 112.419 26.1195 112.704L26.4105 110.726C24.5 110.445 22.7343 110.136 21.1126 109.801L20.7074 111.759ZM26.1515 112.709C28.0879 112.93 30.026 113.29 31.966 113.788L32.464 111.852C30.4373 111.33 28.4087 110.953 26.3785 110.721L26.1515 112.709ZM31.966 113.788C33.8639 114.277 35.5564 114.977 37.051 115.885L38.089 114.175C36.4102 113.156 34.5327 112.383 32.464 111.852L31.966 113.788ZM37.0869 115.906C38.5756 116.727 39.7828 117.88 40.7154 119.382L42.4146 118.328C41.3072 116.543 39.8511 115.146 38.0531 114.154L37.0869 115.906ZM40.7238 119.396C41.6076 120.771 42.095 122.659 42.095 125.145H44.095C44.095 122.417 43.5624 120.113 42.4062 118.314L40.7238 119.396ZM42.095 125.145C42.095 127.762 41.3156 130.068 39.7524 132.1L41.3376 133.32C43.1744 130.932 44.095 128.195 44.095 125.145H42.095ZM39.7601 132.09C38.1967 134.071 35.896 135.678 32.7899 136.877L33.5101 138.743C36.864 137.448 39.4933 135.656 41.3299 133.33L39.7601 132.09ZM32.7843 136.879C29.7602 138.067 26.0106 138.68 21.505 138.68V140.68C26.1794 140.68 30.1932 140.046 33.5157 138.741L32.7843 136.879ZM60.0313 136.62L59.5524 137.498L59.5579 137.501L60.0313 136.62ZM51.1063 128.29L50.25 128.806L50.2548 128.815L50.2598 128.822L51.1063 128.29ZM51.1063 103.98L50.256 103.454L50.2536 103.457L51.1063 103.98ZM60.0313 95.65L60.4998 96.5335L60.5046 96.5309L60.0313 95.65ZM85.9563 95.65L85.4829 96.5309L85.4932 96.5363L85.9563 95.65ZM94.8813 128.29L95.7339 128.813L95.7375 128.806L94.8813 128.29ZM85.9563 136.62L85.4829 135.739L85.4829 135.739L85.9563 136.62ZM78.9863 127.27L79.4884 128.135L79.4884 128.135L78.9863 127.27ZM83.1513 122.935L84.0292 123.414L84.035 123.403L83.1513 122.935ZM83.1513 109.335L82.2734 109.814L82.2734 109.814L83.1513 109.335ZM78.9863 105L78.4841 105.865L78.4841 105.865L78.9863 105ZM67.0863 105L67.5884 105.865L67.5884 105.865L67.0863 105ZM62.8363 109.335L61.9696 108.836L61.9639 108.846L61.9584 108.856L62.8363 109.335ZM62.8363 122.935L61.9525 123.403L61.9608 123.419L61.9696 123.434L62.8363 122.935ZM67.0863 127.27L67.5884 126.405L67.5884 126.405L67.0863 127.27ZM73.0363 138.68C68.3062 138.68 64.1376 137.691 60.5046 135.739L59.5579 137.501C63.5182 139.629 68.0196 140.68 73.0363 140.68V138.68ZM60.5101 135.742C56.916 133.782 54.0692 131.122 51.9527 127.758L50.2598 128.822C52.5633 132.484 55.6665 135.378 59.5524 137.498L60.5101 135.742ZM51.9625 127.774C49.9114 124.373 48.8763 120.503 48.8763 116.135H46.8763C46.8763 120.834 47.9945 125.067 50.25 128.806L51.9625 127.774ZM48.8763 116.135C48.8763 111.708 49.9126 107.841 51.9589 104.503L50.2536 103.457C47.9932 107.145 46.8763 111.382 46.8763 116.135H48.8763ZM51.9565 104.506C54.0724 101.088 56.9151 98.4344 60.4998 96.5335L59.5627 94.7665C55.6674 96.8322 52.5601 99.7316 50.256 103.454L51.9565 104.506ZM60.5046 96.5309C64.1376 94.5788 68.3062 93.59 73.0363 93.59V91.59C68.0196 91.59 63.5182 92.6412 59.5579 94.7691L60.5046 96.5309ZM73.0363 93.59C77.7075 93.59 81.8482 94.5779 85.4829 96.5309L86.4296 94.7691C82.4709 92.6421 77.9984 91.59 73.0363 91.59V93.59ZM85.4932 96.5363C89.1361 98.4394 91.9737 101.065 94.0287 104.418L95.7339 103.372C93.4821 99.6986 90.3697 96.8273 86.4193 94.7636L85.4932 96.5363ZM94.0287 104.418C96.0737 107.754 97.1113 111.649 97.1113 116.135H99.1113C99.1113 111.328 97.9955 107.062 95.7339 103.372L94.0287 104.418ZM97.1113 116.135C97.1113 120.503 96.0761 124.373 94.025 127.774L95.7375 128.806C97.993 125.067 99.1113 120.834 99.1113 116.135H97.1113ZM94.0287 127.767C91.9721 131.123 89.1312 133.779 85.4829 135.739L86.4296 137.501C90.3747 135.381 93.4837 132.484 95.7339 128.813L94.0287 127.767ZM85.4829 135.739C81.8482 137.692 77.7075 138.68 73.0363 138.68V140.68C77.9984 140.68 82.4709 139.628 86.4296 137.501L85.4829 135.739ZM73.0363 129.8C75.4066 129.8 77.5659 129.251 79.4884 128.135L78.4841 126.405C76.8932 127.329 75.0859 127.8 73.0363 127.8V129.8ZM79.4884 128.135C81.4111 127.018 82.926 125.436 84.0291 123.414L82.2734 122.456C81.3365 124.174 80.0747 125.482 78.4841 126.405L79.4884 128.135ZM84.035 123.403C85.1449 121.306 85.6813 118.873 85.6813 116.135H83.6813C83.6813 118.61 83.1976 120.71 82.2675 122.467L84.035 123.403ZM85.6813 116.135C85.6813 113.346 85.1469 110.905 84.0291 108.856L82.2734 109.814C83.1956 111.505 83.6813 113.598 83.6813 116.135H85.6813ZM84.0291 108.856C82.926 106.834 81.4111 105.252 79.4884 104.135L78.4841 105.865C80.0747 106.788 81.3365 108.096 82.2734 109.814L84.0291 108.856ZM79.4884 104.135C77.5659 103.019 75.4066 102.47 73.0363 102.47V104.47C75.0859 104.47 76.8932 104.941 78.4841 105.865L79.4884 104.135ZM73.0363 102.47C70.6659 102.47 68.5066 103.019 66.5841 104.135L67.5884 105.865C69.1793 104.941 70.9866 104.47 73.0363 104.47V102.47ZM66.5841 104.135C64.6665 105.249 63.128 106.824 61.9696 108.836L63.7029 109.834C64.6978 108.106 65.9926 106.791 67.5884 105.865L66.5841 104.135ZM61.9584 108.856C60.8406 110.905 60.3063 113.346 60.3063 116.135H62.3063C62.3063 113.598 62.7919 111.505 63.7141 109.814L61.9584 108.856ZM60.3063 116.135C60.3063 118.873 60.8426 121.306 61.9525 123.403L63.72 122.467C62.7899 120.71 62.3063 118.61 62.3063 116.135H60.3063ZM61.9696 123.434C63.128 125.446 64.6665 127.021 66.5841 128.135L67.5884 126.405C65.9926 125.479 64.6978 124.164 63.7029 122.436L61.9696 123.434ZM66.5841 128.135C68.5066 129.251 70.6659 129.8 73.0363 129.8V127.8C70.9866 127.8 69.1793 127.329 67.5884 126.405L66.5841 128.135ZM116.069 137.47L115.622 138.364L115.629 138.368L116.069 137.47ZM109.184 130.755L108.303 131.228L108.307 131.235L109.184 130.755ZM106.719 93.27V92.27H105.719V93.27H106.719ZM119.979 93.27H120.979V92.27H119.979V93.27ZM122.359 125.57L121.607 126.229L121.618 126.241L121.629 126.253L122.359 125.57ZM134.684 126.93L135.157 127.811L135.169 127.805L135.181 127.798L134.684 126.93ZM138.424 122.85L139.319 123.297L139.324 123.286L138.424 122.85ZM139.784 93.27V92.27H138.784V93.27H139.784ZM153.044 93.27H154.044V92.27H153.044V93.27ZM153.044 139V140H154.044V139H153.044ZM140.464 139H139.464V140H140.464V139ZM140.464 126.42L141.311 125.888L139.464 122.947V126.42H140.464ZM142.759 130.075L143.66 130.509L143.9 130.011L143.606 129.543L142.759 130.075ZM135.959 137.3L136.434 138.18L136.44 138.177L135.959 137.3ZM126.269 138.68C122.605 138.68 119.359 137.97 116.51 136.572L115.629 138.368C118.787 139.917 122.341 140.68 126.269 140.68V138.68ZM116.517 136.576C113.76 135.197 111.611 133.107 110.062 130.275L108.307 131.235C110.044 134.41 112.486 136.796 115.622 138.364L116.517 136.576ZM110.065 130.282C108.523 127.41 107.719 123.704 107.719 119.11H105.719C105.719 123.923 106.559 127.98 108.303 131.228L110.065 130.282ZM107.719 119.11V93.27H105.719V119.11H107.719ZM106.719 94.27H119.979V92.27H106.719V94.27ZM118.979 93.27V117.155H120.979V93.27H118.979ZM118.979 117.155C118.979 121.061 119.791 124.153 121.607 126.229L123.112 124.911C121.755 123.36 120.979 120.842 120.979 117.155H118.979ZM121.629 126.253C123.503 128.256 126.088 129.205 129.244 129.205V127.205C126.508 127.205 124.503 126.397 123.09 124.887L121.629 126.253ZM129.244 129.205C131.427 129.205 133.406 128.749 135.157 127.811L134.212 126.049C132.789 126.811 131.142 127.205 129.244 127.205V129.205ZM135.181 127.798C136.957 126.783 138.334 125.267 139.319 123.297L137.53 122.403C136.702 124.06 135.585 125.264 134.188 126.062L135.181 127.798ZM139.324 123.286C140.315 121.243 140.784 118.759 140.784 115.88H138.784C138.784 118.554 138.347 120.717 137.525 122.414L139.324 123.286ZM140.784 115.88V93.27H138.784V115.88H140.784ZM139.784 94.27H153.044V92.27H139.784V94.27ZM152.044 93.27V139H154.044V93.27H152.044ZM153.044 138H140.464V140H153.044V138ZM141.464 139V126.42H139.464V139H141.464ZM139.618 126.952L141.913 130.607L143.606 129.543L141.311 125.888L139.618 126.952ZM141.859 129.641C140.417 132.632 138.294 134.883 135.479 136.423L136.44 138.177C139.631 136.431 142.042 133.865 143.66 130.509L141.859 129.641ZM135.485 136.42C132.692 137.924 129.626 138.68 126.269 138.68V140.68C129.94 140.68 133.334 139.85 136.434 138.18L135.485 136.42ZM202.814 94.8L202.353 95.6872L202.363 95.6927L202.374 95.6979L202.814 94.8ZM209.614 101.43L208.737 101.91L208.741 101.917L209.614 101.43ZM212.079 139V140H213.079V139H212.079ZM198.819 139H197.819V140H198.819V139ZM196.354 106.7L195.612 107.37L195.618 107.377L195.624 107.383L196.354 106.7ZM183.859 105.425L184.318 106.313L184.33 106.307L183.859 105.425ZM179.949 109.42L179.066 108.951L179.06 108.962L179.055 108.973L179.949 109.42ZM178.589 139V140H179.589V139H178.589ZM165.329 139H164.329V140H165.329V139ZM165.329 93.27V92.27H164.329V93.27H165.329ZM177.994 93.27H178.994V92.27H177.994V93.27ZM177.994 105.935L177.145 106.463L178.994 109.435V105.935H177.994ZM175.614 102.11L174.733 101.637L174.459 102.147L174.765 102.638L175.614 102.11ZM182.669 95.055L183.142 95.936L183.142 95.936L182.669 95.055ZM193.124 93.59C196.612 93.59 199.68 94.2975 202.353 95.6872L203.275 93.9128C200.281 92.3558 196.889 91.59 193.124 91.59V93.59ZM202.374 95.6979C205.066 97.0178 207.186 99.0756 208.737 101.91L210.491 100.95C208.756 97.7778 206.342 95.4155 203.254 93.9021L202.374 95.6979ZM208.741 101.917C210.275 104.669 211.079 108.283 211.079 112.82H213.079C213.079 108.064 212.239 104.084 210.487 100.943L208.741 101.917ZM211.079 112.82V139H213.079V112.82H211.079ZM212.079 138H198.819V140H212.079V138ZM199.819 139V114.86H197.819V139H199.819ZM199.819 114.86C199.819 111.054 198.973 108.036 197.084 106.017L195.624 107.383C197.021 108.877 197.819 111.3 197.819 114.86H199.819ZM197.096 106.03C195.275 104.014 192.709 103.065 189.554 103.065V105.065C192.292 105.065 194.26 105.873 195.612 107.37L197.096 106.03ZM189.554 103.065C187.308 103.065 185.246 103.552 183.388 104.543L184.33 106.307C185.872 105.485 187.607 105.065 189.554 105.065V103.065ZM183.4 104.537C181.556 105.49 180.114 106.979 179.066 108.951L180.832 109.889C181.711 108.235 182.875 107.06 184.318 106.313L183.4 104.537ZM179.055 108.973C178.056 110.969 177.589 113.459 177.589 116.39H179.589C179.589 113.654 180.028 111.498 180.843 109.867L179.055 108.973ZM177.589 116.39V139H179.589V116.39H177.589ZM178.589 138H165.329V140H178.589V138ZM166.329 139V93.27H164.329V139H166.329ZM165.329 94.27H177.994V92.27H165.329V94.27ZM176.994 93.27V105.935H178.994V93.27H176.994ZM178.843 105.407L176.463 101.582L174.765 102.638L177.145 106.463L178.843 105.407ZM176.495 102.583C178.045 99.6962 180.255 97.4864 183.142 95.936L182.196 94.174C178.963 95.9103 176.469 98.4038 174.733 101.637L176.495 102.583ZM183.142 95.936C186.039 94.3802 189.358 93.59 193.124 93.59V91.59C189.07 91.59 185.419 92.4432 182.196 94.174L183.142 95.936ZM232.421 136.79L231.923 137.657L231.934 137.663L232.421 136.79ZM224.176 128.545L223.305 129.037L223.311 129.047L224.176 128.545ZM224.176 103.64L223.311 103.138L223.305 103.148L224.176 103.64ZM232.421 95.48L231.934 94.6065L231.934 94.6065L232.421 95.48ZM254.181 95.14L254.688 94.2781L254.688 94.2781L254.181 95.14ZM260.896 102.875L261.804 102.458L261.804 102.458L260.896 102.875ZM260.981 129.395L261.895 129.8L261.897 129.794L260.981 129.395ZM254.351 137.13L253.844 136.268L253.836 136.273L254.351 137.13ZM252.226 127.27L251.723 126.405L251.723 126.405L252.226 127.27ZM256.391 122.935L255.518 122.447L255.513 122.456L256.391 122.935ZM256.391 109.335L255.513 109.814L255.518 109.824L255.524 109.834L256.391 109.335ZM252.226 105L251.723 105.865L251.723 105.865L252.226 105ZM240.411 105L240.913 105.865L240.913 105.865L240.411 105ZM236.161 109.335L235.294 108.836L235.288 108.846L235.283 108.856L236.161 109.335ZM236.161 122.935L235.277 123.403L235.285 123.419L235.294 123.434L236.161 122.935ZM240.411 127.27L240.913 126.405L240.913 126.405L240.411 127.27ZM258.346 139H257.346V140H258.346V139ZM258.346 129.65L257.346 129.631L257.346 129.641V129.65H258.346ZM258.601 116.05L259.6 116.069L259.601 116.028L259.599 115.987L258.601 116.05ZM257.751 102.535H256.751V102.566L256.753 102.598L257.751 102.535ZM257.751 75.93V74.93H256.751V75.93H257.751ZM271.011 75.93H272.011V74.93H271.011V75.93ZM271.011 139V140H272.011V139H271.011ZM244.066 138.68C239.914 138.68 236.202 137.753 232.907 135.917L231.934 137.663C235.552 139.68 239.604 140.68 244.066 140.68V138.68ZM232.918 135.923C229.617 134.028 226.994 131.407 225.04 128.043L223.311 129.047C225.437 132.709 228.311 135.585 231.923 137.657L232.918 135.923ZM225.046 128.053C223.162 124.715 222.201 120.754 222.201 116.135H220.201C220.201 121.036 221.223 125.348 223.305 129.037L225.046 128.053ZM222.201 116.135C222.201 111.457 223.163 107.468 225.046 104.132L223.305 103.148C221.222 106.838 220.201 111.179 220.201 116.135H222.201ZM225.04 104.142C226.993 100.78 229.612 98.1902 232.907 96.3535L231.934 94.6065C228.316 96.6231 225.439 99.4734 223.311 103.138L225.04 104.142ZM232.907 96.3535C236.202 94.517 239.914 93.59 244.066 93.59V91.59C239.604 91.59 235.552 92.5897 231.934 94.6065L232.907 96.3535ZM244.066 93.59C247.768 93.59 250.959 94.4051 253.674 96.0019L254.688 94.2781C251.622 92.4749 248.07 91.59 244.066 91.59V93.59ZM253.674 96.0019C256.364 97.5847 258.473 99.9954 259.987 103.292L261.804 102.458C260.144 98.8412 257.777 96.0953 254.688 94.2781L253.674 96.0019ZM259.987 103.292C261.494 106.575 262.276 110.84 262.276 116.135H264.276C264.276 110.663 263.471 106.088 261.804 102.458L259.987 103.292ZM262.276 116.135C262.276 121.374 261.522 125.647 260.064 128.996L261.897 129.794C263.499 126.116 264.276 121.549 264.276 116.135H262.276ZM260.066 128.99C258.61 132.281 256.531 134.687 253.844 136.268L254.858 137.992C257.95 136.173 260.292 133.422 261.895 129.8L260.066 128.99ZM253.836 136.273C251.189 137.861 247.947 138.68 244.066 138.68V140.68C248.231 140.68 251.846 139.799 254.865 137.987L253.836 136.273ZM246.361 129.8C248.679 129.8 250.809 129.249 252.728 128.135L251.723 126.405C250.129 127.331 248.349 127.8 246.361 127.8V129.8ZM252.728 128.135C254.65 127.018 256.165 125.436 257.268 123.414L255.513 122.456C254.576 124.174 253.314 125.482 251.723 126.405L252.728 128.135ZM257.263 123.423C258.437 121.322 259.006 118.881 259.006 116.135H257.006C257.006 118.602 256.497 120.695 255.518 122.447L257.263 123.423ZM259.006 116.135C259.006 113.337 258.44 110.89 257.257 108.836L255.524 109.834C256.495 111.52 257.006 113.606 257.006 116.135H259.006ZM257.268 108.856C256.165 106.834 254.65 105.252 252.728 104.135L251.723 105.865C253.314 106.788 254.576 108.096 255.513 109.814L257.268 108.856ZM252.728 104.135C250.809 103.021 248.679 102.47 246.361 102.47V104.47C248.349 104.47 250.129 104.939 251.723 105.865L252.728 104.135ZM246.361 102.47C243.99 102.47 241.831 103.019 239.908 104.135L240.913 105.865C242.504 104.941 244.311 104.47 246.361 104.47V102.47ZM239.908 104.135C237.991 105.249 236.452 106.824 235.294 108.836L237.027 109.834C238.022 108.106 239.317 106.791 240.913 105.865L239.908 104.135ZM235.283 108.856C234.165 110.905 233.631 113.346 233.631 116.135H235.631C235.631 113.598 236.116 111.505 237.038 109.814L235.283 108.856ZM233.631 116.135C233.631 118.873 234.167 121.306 235.277 123.403L237.044 122.467C236.114 120.71 235.631 118.61 235.631 116.135H233.631ZM235.294 123.434C236.452 125.446 237.991 127.021 239.908 128.135L240.913 126.405C239.317 125.479 238.022 124.164 237.027 122.436L235.294 123.434ZM239.908 128.135C241.831 129.251 243.99 129.8 246.361 129.8V127.8C244.311 127.8 242.504 127.329 240.913 126.405L239.908 128.135ZM259.346 139V129.65H257.346V139H259.346ZM259.345 129.669L259.6 116.069L257.601 116.031L257.346 129.631L259.345 129.669ZM259.599 115.987L258.749 102.472L256.753 102.598L257.603 116.113L259.599 115.987ZM258.751 102.535V75.93H256.751V102.535H258.751ZM257.751 76.93H271.011V74.93H257.751V76.93ZM270.011 75.93V139H272.011V75.93H270.011ZM271.011 138H258.346V140H271.011V138ZM291.103 136.79L290.616 137.663L290.616 137.663L291.103 136.79ZM282.858 128.63L281.987 129.122L281.993 129.132L282.858 128.63ZM282.858 103.725L281.993 103.223L281.987 103.233L282.858 103.725ZM291.103 95.565L291.59 96.4385L291.601 96.4324L291.103 95.565ZM313.033 95.14L312.519 95.9975L312.526 96.0019L313.033 95.14ZM319.663 102.875L318.749 103.28L318.749 103.28L319.663 102.875ZM319.578 129.395L320.487 129.812L320.489 129.807L319.578 129.395ZM312.863 137.13L312.356 136.268L312.356 136.268L312.863 137.13ZM310.908 127.27L310.406 126.405L310.406 126.405L310.908 127.27ZM315.073 122.935L314.2 122.447L314.195 122.456L315.073 122.935ZM315.073 109.335L314.195 109.814L314.201 109.824L314.206 109.834L315.073 109.335ZM310.908 105L310.406 105.865L310.406 105.865L310.908 105ZM299.093 105L299.595 105.865L299.595 105.865L299.093 105ZM294.843 109.335L293.976 108.836L293.971 108.846L293.965 108.856L294.843 109.335ZM294.843 122.935L293.959 123.403L293.968 123.419L293.976 123.434L294.843 122.935ZM299.093 127.27L299.595 126.405L299.595 126.405L299.093 127.27ZM316.433 155.49H315.433V156.49H316.433V155.49ZM316.433 129.735L315.435 129.672L315.433 129.704V129.735H316.433ZM317.283 116.22L318.281 116.283L318.284 116.242L318.283 116.201L317.283 116.22ZM317.028 102.62H316.028V102.629L316.028 102.639L317.028 102.62ZM317.028 93.27V92.27H316.028V93.27H317.028ZM329.693 93.27H330.693V92.27H329.693V93.27ZM329.693 155.49V156.49H330.693V155.49H329.693ZM302.748 138.68C298.596 138.68 294.885 137.753 291.59 135.917L290.616 137.663C294.235 139.68 298.286 140.68 302.748 140.68V138.68ZM291.59 135.917C288.295 134.08 285.675 131.49 283.723 128.128L281.993 129.132C284.121 132.797 286.998 135.647 290.616 137.663L291.59 135.917ZM283.729 128.138C281.845 124.802 280.883 120.813 280.883 116.135H278.883C278.883 121.091 279.904 125.432 281.987 129.122L283.729 128.138ZM280.883 116.135C280.883 111.516 281.844 107.555 283.729 104.217L281.987 103.233C279.905 106.922 278.883 111.234 278.883 116.135H280.883ZM283.723 104.227C285.675 100.865 288.295 98.2752 291.59 96.4385L290.616 94.6915C286.998 96.7081 284.121 99.5584 281.993 103.223L283.723 104.227ZM291.601 96.4324C294.894 94.5429 298.602 93.59 302.748 93.59V91.59C298.281 91.59 294.226 92.6204 290.605 94.6976L291.601 96.4324ZM302.748 93.59C306.63 93.59 309.871 94.4091 312.519 95.9975L313.548 94.2825C310.528 92.4709 306.913 91.59 302.748 91.59V93.59ZM312.526 96.0019C315.213 97.5826 317.292 99.9889 318.749 103.28L320.578 102.47C318.974 98.8477 316.633 96.0974 313.54 94.2781L312.526 96.0019ZM318.749 103.28C320.204 106.567 320.958 110.836 320.958 116.135H322.958C322.958 110.667 322.183 106.096 320.578 102.47L318.749 103.28ZM320.958 116.135C320.958 121.371 320.177 125.639 318.667 128.983L320.489 129.807C322.152 126.124 322.958 121.553 322.958 116.135H320.958ZM318.669 128.978C317.156 132.275 315.047 134.685 312.356 136.268L313.37 137.992C316.459 136.175 318.827 133.429 320.487 129.812L318.669 128.978ZM312.356 136.268C309.641 137.865 306.45 138.68 302.748 138.68V140.68C306.753 140.68 310.305 139.795 313.37 137.992L312.356 136.268ZM305.043 129.8C307.362 129.8 309.492 129.249 311.41 128.135L310.406 126.405C308.811 127.331 307.031 127.8 305.043 127.8V129.8ZM311.41 128.135C313.333 127.018 314.848 125.436 315.951 123.414L314.195 122.456C313.258 124.174 311.997 125.482 310.406 126.405L311.41 128.135ZM315.946 123.423C317.12 121.322 317.688 118.881 317.688 116.135H315.688C315.688 118.602 315.18 120.695 314.2 122.447L315.946 123.423ZM317.688 116.135C317.688 113.337 317.122 110.89 315.94 108.836L314.206 109.834C315.177 111.52 315.688 113.606 315.688 116.135H317.688ZM315.951 108.856C314.848 106.834 313.333 105.252 311.41 104.135L310.406 105.865C311.997 106.788 313.258 108.096 314.195 109.814L315.951 108.856ZM311.41 104.135C309.492 103.021 307.362 102.47 305.043 102.47V104.47C307.031 104.47 308.811 104.939 310.406 105.865L311.41 104.135ZM305.043 102.47C302.673 102.47 300.513 103.019 298.591 104.135L299.595 105.865C301.186 104.941 302.993 104.47 305.043 104.47V102.47ZM298.591 104.135C296.673 105.249 295.135 106.824 293.976 108.836L295.71 109.834C296.705 108.106 297.999 106.791 299.595 105.865L298.591 104.135ZM293.965 108.856C292.847 110.905 292.313 113.346 292.313 116.135H294.313C294.313 113.598 294.799 111.505 295.721 109.814L293.965 108.856ZM292.313 116.135C292.313 118.873 292.849 121.306 293.959 123.403L295.727 122.467C294.797 120.71 294.313 118.61 294.313 116.135H292.313ZM293.976 123.434C295.135 125.446 296.673 127.021 298.591 128.135L299.595 126.405C297.999 125.479 296.705 124.164 295.71 122.436L293.976 123.434ZM298.591 128.135C300.513 129.251 302.673 129.8 305.043 129.8V127.8C302.993 127.8 301.186 127.329 299.595 126.405L298.591 128.135ZM317.433 155.49V129.735H315.433V155.49H317.433ZM317.431 129.798L318.281 116.283L316.285 116.157L315.435 129.672L317.431 129.798ZM318.283 116.201L318.028 102.601L316.028 102.639L316.283 116.239L318.283 116.201ZM318.028 102.62V93.27H316.028V102.62H318.028ZM317.028 94.27H329.693V92.27H317.028V94.27ZM328.693 93.27V155.49H330.693V93.27H328.693ZM329.693 154.49H316.433V156.49H329.693V154.49Z" fill="#18181B"/>
</svg>
